<?xml version="1.0" encoding="UTF-8"?>
<svg id="Layer_1" data-name="Layer 1" xmlns="http://www.w3.org/2000/svg" viewBox="0 0 64 64">
  <circle cx="32" cy="32" r="32" fill="#fff"/>
  <path d="M42.06,29.35c1.88-1.02,3.43-1.53,4.65-1.53,1.72,0,3.13,.48,4.23,1.44,1.1,.96,1.65,2.18,1.65,3.67,0,.9-.21,1.87-.64,2.93l-2.82,7.04h3.09c2.26,0,3.38,.8,3.38,2.39,0,1.09-.4,1.94-1.19,2.55-.8,.61-1.91,.91-3.34,.91h-5.4c-1.15,0-2.11-.33-2.89-.98-.78-.65-1.17-1.45-1.17-2.4,0-.64,.21-1.47,.62-2.47l2.47-6.07c.3-.77,.46-1.35,.46-1.75,0-1.02-.68-1.53-2.04-1.53-1.83,0-3.37,1.56-4.62,4.67l-3.01,7.38c-.95,2.35-2.35,3.52-4.22,3.52-.73,0-1.36-.23-1.88-.7-.52-.47-.78-1.03-.78-1.69,0-.5,.13-1.09,.4-1.77l.29-.72,11.68-28.82c1.02-2.47,2.42-3.71,4.19-3.71,.73,0,1.37,.25,1.89,.74,.53,.49,.79,1.09,.79,1.79,0,.57-.23,1.42-.7,2.55l-5.1,12.57Z"/>
  <path d="M36.39,14.45c0-1.58-1.15-2.36-3.44-2.36h-3.06c-2.69,0-4.83,.59-6.43,1.76-1.6,1.17-2.98,3.16-4.12,5.95l-3.41,8.41h-3.06c-1.43,0-2.55,.31-3.34,.93-.8,.62-1.19,1.48-1.19,2.59,0,1.56,1.14,2.34,3.41,2.34h1.83l-7.04,17.3c1.41,1.85,3.02,3.54,4.79,5.05l9.07-22.35h4.94c1.43,0,2.55-.3,3.34-.91,.8-.61,1.19-1.46,1.19-2.55,0-1.59-1.14-2.39-3.41-2.39h-3.71l2.52-6.18c.59-1.45,1.32-2.48,2.19-3.09,.87-.61,2.05-.91,3.56-.91h.81c1.43,0,2.55-.31,3.36-.94,.8-.63,1.21-1.5,1.21-2.63Z"/>
</svg>